<?xml version="1.0" encoding="UTF-8" standalone="no"?><!DOCTYPE svg PUBLIC "-//W3C//DTD SVG 1.1//EN" "http://www.w3.org/Graphics/SVG/1.1/DTD/svg11.dtd"><svg width="100%" height="100%" viewBox="0 0 8000 8000" version="1.1" xmlns="http://www.w3.org/2000/svg" xmlns:xlink="http://www.w3.org/1999/xlink" xml:space="preserve" xmlns:serif="http://www.serif.com/" style="fill-rule:evenodd;clip-rule:evenodd;stroke-linejoin:round;stroke-miterlimit:2;"><g><path d="M4251.56,3143.05c-69.011,-54.366 144.576,-105.733 83.415,-142.971c-476.625,-290.197 -247.511,-251.564 -247.511,-251.564l490.301,-32.252l1322.46,-1806.44l1658.31,0l-2265.71,1626.74l2468.18,2329.59l-1725.79,0l-1783.64,-1723.1Z" style="fill-rule:nonzero;"/><path d="M429.713,7090.28l-0,-6181.8l2993.24,-0c296.301,-0 562.367,48.71 798.198,146.131c235.831,97.421 436.893,231.744 603.184,402.969c166.291,171.224 294.789,379.351 385.493,624.379c90.704,245.029 136.056,512.199 136.056,801.509c0,295.216 -45.352,563.861 -136.056,805.938c-90.704,242.076 -219.202,448.727 -385.493,619.951c-166.291,171.225 -367.353,305.548 -603.184,402.969c-235.831,97.421 -501.897,146.131 -798.198,146.131l-1614.54,0l0,2231.83l-1378.7,0Zm1378.7,-3400.88l1451.27,-0c205.596,-0 367.352,-51.663 485.268,-154.988c117.915,-103.326 176.873,-255.361 176.873,-456.108l0,-389.683c0,-200.747 -58.958,-352.783 -176.873,-456.108c-117.916,-103.325 -279.672,-154.988 -485.268,-154.988l-1451.27,0l0,1611.88Z" style="fill-rule:nonzero;"/></g></svg>