<?xml version="1.0" encoding="UTF-8" standalone="no"?><!DOCTYPE svg PUBLIC "-//W3C//DTD SVG 1.1//EN" "http://www.w3.org/Graphics/SVG/1.1/DTD/svg11.dtd"><svg width="100%" height="100%" viewBox="0 0 8000 8000" version="1.1" xmlns="http://www.w3.org/2000/svg" xmlns:xlink="http://www.w3.org/1999/xlink" xml:space="preserve" xmlns:serif="http://www.serif.com/" style="fill-rule:evenodd;clip-rule:evenodd;stroke-linejoin:round;stroke-miterlimit:2;"><g id="Ebene1"><g><path d="M3272.65,4398.91c-756.668,-746.991 -1137.74,-467.036 -1094.03,974.299l-0,1718.31l-1827.39,0l-0,-6182.37l1827.39,-0l-0,2940.61l72.134,-0l1428.66,-117.768l1649.05,-2822.84l2067.84,-0l-2825.25,2542.03l3077.72,3640.33l-2152,0l-2224.13,-2692.61Z" style="fill-rule:nonzero;"/><path d="M429.713,7090.28l-0,-6181.8l2993.24,-0c296.301,-0 562.367,48.71 798.198,146.131c235.831,97.421 436.893,231.744 603.184,402.969c166.291,171.224 294.789,379.351 385.493,624.379c90.704,245.029 136.056,512.199 136.056,801.509c0,295.216 -45.352,563.861 -136.056,805.938c-90.704,242.076 -219.202,448.727 -385.493,619.951c-166.291,171.225 -367.353,305.548 -603.184,402.969c-235.831,97.421 -501.897,146.131 -798.198,146.131l-1614.54,0l0,2231.83l-1378.7,0Zm1378.7,-3400.88l1451.27,-0c205.596,-0 367.352,-51.663 485.268,-154.988c117.915,-103.326 176.873,-255.361 176.873,-456.108l0,-389.683c0,-200.747 -58.958,-352.783 -176.873,-456.108c-117.916,-103.325 -279.672,-154.988 -485.268,-154.988l-1451.27,0l0,1611.88Z" style="fill-rule:nonzero;"/></g></g></svg>